<?xml version="1.0" encoding="utf-8"?>
<!-- Generator: Adobe Illustrator 16.0.0, SVG Export Plug-In . SVG Version: 6.00 Build 0)  -->
<!DOCTYPE svg PUBLIC "-//W3C//DTD SVG 1.1//EN" "http://www.w3.org/Graphics/SVG/1.1/DTD/svg11.dtd">
<svg version="1.1" id="Layer_1" xmlns="http://www.w3.org/2000/svg" xmlns:xlink="http://www.w3.org/1999/xlink" x="0px" y="0px"
	 width="128px" height="128px" viewBox="0 0 128 128" enable-background="new 0 0 128 128" xml:space="preserve">
<g>
	<g>
		<g>
			<path fill="#282D33" d="M92.177,125.771h-4.011V91.68c0-0.529,0.21-1.038,0.584-1.414c6.558-6.598,10.171-15.366,10.171-24.689
				c0-19.272-15.61-34.952-34.796-34.952c-19.189,0-34.8,15.68-34.8,34.952c0,0.534,0.02,1.062,0.041,1.593
				c0.015,0.377-0.077,0.751-0.265,1.078L18.93,85.938h5.083c1.107,0,2.005,0.897,2.005,2.005v14.592
				c0,4.391,3.551,7.962,7.917,7.962h15.717c1.107,0,2.006,0.897,2.006,2.005v13.27h-4.011v-11.264H33.935
				c-6.577,0-11.928-5.371-11.928-11.973V89.948h-6.544c-0.716,0-1.377-0.382-1.736-1.002c-0.358-0.619-0.359-1.383-0.002-2.003
				l11.611-20.195c-0.013-0.39-0.022-0.779-0.022-1.172c0-21.484,17.411-38.964,38.812-38.964c21.398,0,38.807,17.479,38.807,38.964
				c0,10.11-3.813,19.637-10.755,26.918V125.771z"/>
		</g>
	</g>
	<g>
		<g>
			<g>
				<path fill="#282D33" d="M63.864,68.437c-0.345,0-0.689-0.09-0.998-0.267l-14.624-8.391c-0.622-0.356-1.006-1.019-1.007-1.734
					c-0.001-0.717,0.379-1.381,1-1.74l14.718-8.536c0.62-0.359,1.385-0.36,2.004-0.005l14.629,8.395
					c0.621,0.357,1.005,1.019,1.007,1.735s-0.38,1.381-0.999,1.74l-14.724,8.532C64.559,68.346,64.211,68.437,63.864,68.437z
					 M53.254,58.03l10.605,6.086l10.712-6.209l-10.608-6.088L53.254,58.03z"/>
			</g>
			<g>
				<g>
					<path fill="#282D33" d="M64.035,85.498c-0.342,0-0.685-0.087-0.992-0.262c-0.62-0.354-1.006-1.01-1.013-1.723l-0.171-17.063
						c-0.007-0.723,0.375-1.394,1-1.756l14.723-8.532c0.618-0.358,1.377-0.361,1.998-0.008c0.62,0.354,1.006,1.01,1.013,1.723
						l0.171,17.059c0.007,0.722-0.375,1.393-1,1.755l-14.722,8.537C64.73,85.408,64.383,85.498,64.035,85.498z M65.881,67.579
						l0.126,12.453l10.732-6.225l-0.124-12.449L65.881,67.579z"/>
				</g>
			</g>
			<g>
				<g>
					<path fill="#282D33" d="M64.055,85.498c-0.007,0-0.013,0-0.02,0c-0.345,0-0.689-0.089-0.998-0.266L48.41,76.838
						c-0.617-0.354-1-1.008-1.007-1.72L47.234,58.06c-0.007-0.719,0.372-1.387,0.992-1.75c0.621-0.364,1.389-0.366,2.012-0.01
						l14.623,8.392c0.617,0.354,1.001,1.008,1.008,1.719l0.169,16.778c0.015,0.099,0.022,0.2,0.022,0.305
						C66.061,84.601,65.163,85.498,64.055,85.498z M51.403,73.93l10.592,6.08L61.87,67.599l-10.59-6.076L51.403,73.93z"/>
				</g>
			</g>
		</g>
		<g>
			<path fill="#282D33" d="M62.293,95.874c-1.417-0.082-2.84-0.269-4.232-0.556l0.81-3.929c1.201,0.248,2.43,0.408,3.653,0.479
				L62.293,95.874z M66.557,95.813l-0.345-3.996c1.222-0.105,2.444-0.302,3.635-0.585l0.928,3.901
				C69.393,95.462,67.974,95.689,66.557,95.813z M53.949,94.147c-1.331-0.487-2.641-1.08-3.894-1.761l1.916-3.523
				c1.081,0.587,2.21,1.098,3.357,1.518L53.949,94.147z M74.846,93.843l-1.488-3.725c1.132-0.453,2.244-0.995,3.307-1.613
				l2.018,3.467C77.45,92.688,76.16,93.318,74.846,93.843z M46.463,90.077c-1.132-0.85-2.215-1.793-3.218-2.802l2.845-2.828
				c0.867,0.873,1.803,1.688,2.781,2.422L46.463,90.077z M82.205,89.562l-2.501-3.136c0.962-0.767,1.873-1.608,2.711-2.5
				l2.926,2.744C84.371,87.703,83.316,88.676,82.205,89.562z M40.464,84.04c-0.846-1.143-1.615-2.355-2.284-3.602l3.534-1.897
				c0.578,1.078,1.242,2.125,1.974,3.111L40.464,84.04z M88.029,83.353l-3.291-2.293c0.702-1.008,1.337-2.075,1.886-3.17
				l3.586,1.794C89.576,80.951,88.842,82.187,88.029,83.353z M36.44,76.54c-0.483-1.336-0.872-2.72-1.156-4.111l3.931-0.801
				c0.245,1.201,0.58,2.395,0.997,3.547L36.44,76.54z M91.837,75.733l-3.809-1.253c0.382-1.163,0.683-2.366,0.893-3.574l3.952,0.688
				C92.63,72.994,92.281,74.387,91.837,75.733z M34.737,68.199c-0.032-0.563-0.048-1.13-0.049-1.699
				c0-0.853,0.037-1.714,0.109-2.562l3.997,0.343c-0.063,0.734-0.095,1.48-0.095,2.217c0,0.493,0.015,0.985,0.042,1.474
				L34.737,68.199z M93.299,67.354l-4.01-0.12c0.007-0.243,0.011-0.488,0.011-0.735c-0.001-0.984-0.058-1.978-0.169-2.949
				l3.985-0.456c0.129,1.121,0.194,2.267,0.195,3.403C93.312,66.784,93.308,67.07,93.299,67.354z M39.374,60.642l-3.905-0.917
				c0.325-1.383,0.754-2.755,1.277-4.077l3.73,1.475C40.025,58.263,39.654,59.447,39.374,60.642z M88.448,59.929
				c-0.316-1.188-0.721-2.359-1.204-3.482l3.687-1.583c0.559,1.302,1.028,2.659,1.394,4.035L88.448,59.929z M42.078,53.802
				l-3.477-2.001c0.708-1.23,1.512-2.42,2.391-3.536l3.151,2.481C43.385,51.71,42.69,52.738,42.078,53.802z M85.55,53.176
				c-0.643-1.046-1.366-2.053-2.151-2.993l3.079-2.57c0.909,1.089,1.747,2.255,2.489,3.465L85.55,53.176z M46.628,48.021
				l-2.762-2.909c1.029-0.977,2.139-1.888,3.299-2.705l2.313,3.276C48.477,46.391,47.518,47.178,46.628,48.021z M80.838,47.53
				c-0.914-0.819-1.895-1.578-2.916-2.256l2.217-3.343c1.183,0.784,2.318,1.663,3.377,2.61L80.838,47.53z M52.635,43.786
				l-1.812-3.579c1.269-0.643,2.596-1.195,3.943-1.644l1.267,3.806C54.873,42.756,53.729,43.231,52.635,43.786z M74.711,43.467
				c-1.11-0.521-2.268-0.966-3.44-1.318l1.155-3.841c1.361,0.409,2.704,0.924,3.99,1.528L74.711,43.467z M59.602,41.467l-0.694-3.95
				c1.396-0.246,2.824-0.391,4.247-0.431l0.114,4.009C62.04,41.13,60.806,41.255,59.602,41.467z M67.675,41.351
				c-1.208-0.177-2.444-0.267-3.675-0.267v-4.011c1.424,0,2.854,0.104,4.255,0.308L67.675,41.351z"/>
		</g>
		<g>
			<g>
				<g>
					<polygon fill="#282D33" points="73.008,16.181 64.769,7.912 56.529,16.181 53.688,13.35 64.769,2.229 75.85,13.35 					"/>
				</g>
				<g>
					<rect x="62.765" y="6.991" fill="#282D33" width="4.011" height="16.408"/>
				</g>
			</g>
			<g>
				<g>
					<polygon fill="#282D33" points="23.29,36.23 19.278,36.229 19.285,20.51 34.944,20.503 34.946,24.515 23.294,24.52 					"/>
				</g>
				<g>
					
						<rect x="20.231" y="27.666" transform="matrix(0.7058 0.7084 -0.7084 0.7058 29.3815 -11.4016)" fill="#282D33" width="16.372" height="4.011"/>
				</g>
			</g>
			<g>
				<g>
					<polygon fill="#282D33" points="11.057,76.84 0,65.724 11.057,54.609 13.9,57.438 5.657,65.724 13.9,74.012 					"/>
				</g>
				<g>
					<rect x="4.738" y="63.717" fill="#282D33" width="16.341" height="4.012"/>
				</g>
			</g>
			<g>
				<g>
					<polygon fill="#282D33" points="116.936,78.388 114.094,75.558 122.34,67.273 114.093,58.987 116.937,56.158 128,67.273 					
						"/>
				</g>
				<g>
					<rect x="106.916" y="65.27" fill="#282D33" width="16.344" height="4.011"/>
				</g>
			</g>
			<g>
				<g>
					<polygon fill="#282D33" points="105.797,37.323 105.793,25.616 94.141,25.611 94.143,21.6 109.803,21.607 109.809,37.322 					
						"/>
				</g>
				<g>
					
						<rect x="98.665" y="22.582" transform="matrix(0.7086 0.7056 -0.7056 0.7086 51.0503 -62.0702)" fill="#282D33" width="4.011" height="16.374"/>
				</g>
			</g>
		</g>
	</g>
</g>
</svg>
