<svg xmlns="http://www.w3.org/2000/svg" viewBox="0 0 48 48"><title>14-thinking</title><g id="_14-thinking" data-name="14-thinking"><path d="M37,48H15a1,1,0,0,1-.949-.684L12.279,42H7a3,3,0,0,1-3-3V33H1a1,1,0,0,1-.857-1.515L4,25.056v-2.61a16.7,16.7,0,0,1,.422-3.666l1.951.44A14.664,14.664,0,0,0,6,22.446v2.887a1,1,0,0,1-.143.515L2.766,31H5a1,1,0,0,1,1,1v7a1,1,0,0,0,1,1h6a1,1,0,0,1,.949.684L15.721,46H37Z"/><path d="M31,20H6.022a1,1,0,0,1-.8-.4A5.967,5.967,0,0,1,7,10.8,6.008,6.008,0,0,1,13,5a5.878,5.878,0,0,1,1.068.1,6,6,0,0,1,11.864,0A5.878,5.878,0,0,1,27,5a6.008,6.008,0,0,1,6,5.8A5.993,5.993,0,0,1,36,16a5.89,5.89,0,0,1-.125,1.2L33.917,16.8A3.884,3.884,0,0,0,34,16a4,4,0,0,0-2.433-3.68,1,1,0,0,1-.6-1c.006-.069.015-.137.024-.205A.835.835,0,0,0,31,11a3.984,3.984,0,0,0-5.635-3.642,1,1,0,0,1-1.406-1l.025-.211A1.18,1.18,0,0,0,24,6a4,4,0,0,0-8,0,1.18,1.18,0,0,0,.016.147l.025.211a1,1,0,0,1-1.406,1A3.984,3.984,0,0,0,9,11a.835.835,0,0,0,.013.112c.009.068.018.136.024.205a1,1,0,0,1-.6,1A4,4,0,0,0,6,16a3.908,3.908,0,0,0,.554,2H31Z"/><path d="M19,11H17a4,4,0,0,0-8,0H7a6,6,0,0,1,12,0Z"/><path d="M25.2,19.605A5.946,5.946,0,0,1,24,16h2a3.963,3.963,0,0,0,.8,2.4Z"/><path d="M14.8,19.6l-1.6-1.2A3.959,3.959,0,0,0,14,16h2A5.944,5.944,0,0,1,14.8,19.6Z"/><path d="M40,42H34a1,1,0,0,1-1-1V37.9a1,1,0,0,0-.6-.906,11,11,0,1,1,9.195,0,1,1,0,0,0-.6.908V41A1,1,0,0,1,40,42Zm-5-2h4V37.9a3.015,3.015,0,0,1,1.762-2.724A9,9,0,0,0,43,20.292a8.921,8.921,0,0,0-7.035-2.234,9,9,0,0,0-2.724,17.121A3.014,3.014,0,0,1,35,37.9Z"/><path d="M38,48H36a3,3,0,0,1-3-3V41a1,1,0,0,1,1-1h6a1,1,0,0,1,1,1v4A3,3,0,0,1,38,48Zm-3-6v3a1,1,0,0,0,1,1h2a1,1,0,0,0,1-1V42Z"/><rect x="34" y="43" width="6" height="2"/><path d="M38,41H36V27a1,1,0,0,1,1-1h3a1,1,0,0,0,1-1V24h2v1a3,3,0,0,1-3,3H38Z"/><path d="M37,28H34a3,3,0,0,1-3-3V24h2v1a1,1,0,0,0,1,1h3Z"/><rect x="5" y="35" width="6" height="2"/><rect x="9" y="15" width="2" height="2"/><rect x="11" y="13" width="2" height="2"/><rect x="25" y="11" width="2" height="2"/><rect x="27" y="9" width="2" height="2"/><path d="M30,44H26V42h3V39h2v4A1,1,0,0,1,30,44Z"/><rect x="22" y="42" width="2" height="2"/></g></svg>